<svg width="34" height="34" viewBox="0 0 34 34" fill="none" xmlns="http://www.w3.org/2000/svg">
<path d="M5.66667 11.3333C6.44906 11.3333 7.08333 10.6991 7.08333 9.91667C7.08333 9.13427 6.44906 8.5 5.66667 8.5C4.88427 8.5 4.25 9.13427 4.25 9.91667C4.25 10.6991 4.88427 11.3333 5.66667 11.3333Z" fill="black"/>
<path d="M11.3333 9.91667C11.3333 10.6991 10.6991 11.3333 9.91667 11.3333C9.13427 11.3333 8.5 10.6991 8.5 9.91667C8.5 9.13427 9.13427 8.5 9.91667 8.5C10.6991 8.5 11.3333 9.13427 11.3333 9.91667Z" fill="black"/>
<path d="M14.1667 11.3333C14.9491 11.3333 15.5833 10.6991 15.5833 9.91667C15.5833 9.13427 14.9491 8.5 14.1667 8.5C13.3843 8.5 12.75 9.13427 12.75 9.91667C12.75 10.6991 13.3843 11.3333 14.1667 11.3333Z" fill="black"/>
<path fill-rule="evenodd" clip-rule="evenodd" d="M4.25 4.25C1.9028 4.25 0 6.1528 0 8.5V25.5C0 27.8473 1.9028 29.75 4.25 29.75H29.75C32.0973 29.75 34 27.8473 34 25.5V8.5C34 6.1528 32.0973 4.25 29.75 4.25H4.25ZM29.75 7.08333H4.25C3.4676 7.08333 2.83333 7.7176 2.83333 8.5V12.75H31.1667V8.5C31.1667 7.7176 30.5324 7.08333 29.75 7.08333ZM2.83333 25.5V15.5833H31.1667V25.5C31.1667 26.2824 30.5324 26.9167 29.75 26.9167H4.25C3.4676 26.9167 2.83333 26.2824 2.83333 25.5Z" fill="black"/>
</svg>
