<svg width="17" height="20" viewBox="0 0 17 20" fill="none" xmlns="http://www.w3.org/2000/svg">
<g clip-path="url(#clip0_164_848)">
<path d="M8.50371 5.50781C6.09032 5.50781 4.14367 7.51172 4.14367 9.99609C4.14367 12.4805 6.09032 14.4844 8.50371 14.4844C10.9171 14.4844 12.8638 12.4805 12.8638 9.99609C12.8638 7.51172 10.9171 5.50781 8.50371 5.50781ZM8.50371 12.9141C6.94411 12.9141 5.66911 11.6055 5.66911 9.99609C5.66911 8.38672 6.94032 7.07812 8.50371 7.07812C10.0671 7.07812 11.3383 8.38672 11.3383 9.99609C11.3383 11.6055 10.0633 12.9141 8.50371 12.9141ZM14.0591 5.32422C14.0591 5.90625 13.6037 6.37109 13.0421 6.37109C12.4767 6.37109 12.0251 5.90234 12.0251 5.32422C12.0251 4.74609 12.4805 4.27734 13.0421 4.27734C13.6037 4.27734 14.0591 4.74609 14.0591 5.32422ZM16.9468 6.38672C16.8823 4.98438 16.5711 3.74219 15.5731 2.71875C14.5789 1.69531 13.3722 1.375 12.01 1.30469C10.6059 1.22266 6.39768 1.22266 4.99367 1.30469C3.63518 1.37109 2.42849 1.69141 1.4305 2.71484C0.432506 3.73828 0.125139 4.98047 0.0568359 6.38281C-0.0228516 7.82812 -0.0228516 12.1602 0.0568359 13.6055C0.121345 15.0078 0.432506 16.25 1.4305 17.2734C2.42849 18.2969 3.63139 18.6172 4.99367 18.6875C6.39768 18.7695 10.6059 18.7695 12.01 18.6875C13.3722 18.6211 14.5789 18.3008 15.5731 17.2734C16.5673 16.25 16.8785 15.0078 16.9468 13.6055C17.0265 12.1602 17.0265 7.83203 16.9468 6.38672ZM15.133 15.1562C14.837 15.9219 14.264 16.5117 13.5164 16.8203C12.397 17.2773 9.74076 17.1719 8.50371 17.1719C7.26666 17.1719 4.60661 17.2734 3.49099 16.8203C2.74724 16.5156 2.17425 15.9258 1.87447 15.1562C1.4305 14.0039 1.53295 11.2695 1.53295 9.99609C1.53295 8.72266 1.43429 5.98438 1.87447 4.83594C2.17045 4.07031 2.74344 3.48047 3.49099 3.17187C4.61041 2.71484 7.26666 2.82031 8.50371 2.82031C9.74076 2.82031 12.4008 2.71875 13.5164 3.17187C14.2602 3.47656 14.8332 4.06641 15.133 4.83594C15.5769 5.98828 15.4745 8.72266 15.4745 9.99609C15.4745 11.2695 15.5769 14.0078 15.133 15.1562Z" fill="black"/>
</g>
<defs>
<clipPath id="clip0_164_848">
<rect width="17" height="20" fill="white"/>
</clipPath>
</defs>
</svg>
