<svg width="17" height="20" viewBox="0 0 17 20" fill="none" xmlns="http://www.w3.org/2000/svg">
<path d="M3.80527 17.5001H0.280804V5.8165H3.80527V17.5001ZM2.04114 4.22275C0.914129 4.22275 0 3.26182 0 2.10166C8.06665e-09 1.54439 0.215048 1.00995 0.597836 0.615907C0.980623 0.221861 1.49979 0.000488281 2.04114 0.000488281C2.58248 0.000488281 3.10165 0.221861 3.48444 0.615907C3.86723 1.00995 4.08228 1.54439 4.08228 2.10166C4.08228 3.26182 3.16777 4.22275 2.04114 4.22275ZM16.9962 17.5001H13.4793V11.8126C13.4793 10.4571 13.4528 8.71885 11.6469 8.71885C9.81446 8.71885 9.53366 10.1915 9.53366 11.7149V17.5001H6.01299V5.8165H9.39326V7.41025H9.44259C9.91313 6.49229 11.0625 5.52354 12.7773 5.52354C16.3443 5.52354 17 7.9415 17 11.0821V17.5001H16.9962Z" fill="black"/>
</svg>
