<svg width="34" height="34" viewBox="0 0 34 34" fill="none" xmlns="http://www.w3.org/2000/svg">
<g clip-path="url(#clip0_130_437)">
<path d="M17 4.39163C20.7542 5.45413 24.8625 6.72913 26.9167 7.43746V18.5583C26.9167 20.9666 24.2958 25.2166 17 29.4666C9.70417 25.1458 7.08333 20.9666 7.08333 18.5583V7.43746C9.1375 6.65829 13.2458 5.45413 17 4.39163ZM17 1.41663C17 1.41663 4.25 5.02913 4.25 5.66663V18.5583C4.25 25.075 13.6708 30.8125 16.2917 32.3708C16.5013 32.5109 16.7478 32.5857 17 32.5857C17.2522 32.5857 17.4987 32.5109 17.7083 32.3708C20.4 30.8833 29.75 25.075 29.75 18.5583V5.66663C29.75 5.02913 17 1.41663 17 1.41663Z" fill="#030A1A"/>
<path d="M19.904 24.2958L17.7081 17.7083H20.5415C20.6801 17.7064 20.8151 17.6638 20.9298 17.5858C21.0445 17.5079 21.1337 17.398 21.1865 17.2698C21.2393 17.1415 21.2533 17.0007 21.2268 16.8646C21.2003 16.7285 21.1344 16.6032 21.0373 16.5042L14.7331 7.93332C14.4498 7.57916 13.8831 7.93332 14.0956 8.28749L16.2915 14.875H13.4581C13.3195 14.8769 13.1845 14.9195 13.0698 14.9975C12.9552 15.0754 12.8659 15.1853 12.8131 15.3136C12.7603 15.4418 12.7463 15.5826 12.7728 15.7187C12.7994 15.8548 12.8652 15.9802 12.9623 16.0792L19.2665 24.65C19.5498 25.0042 20.1165 24.65 19.904 24.2958Z" fill="#030A1A"/>
</g>
<defs>
<clipPath id="clip0_130_437">
<rect width="34" height="34" fill="white"/>
</clipPath>
</defs>
</svg>
