<svg width="30" height="30" viewBox="0 0 30 30" fill="none" xmlns="http://www.w3.org/2000/svg">
<path d="M19.125 11.6875C19.125 13.0965 19.6847 14.4477 20.681 15.444C21.6773 16.4403 23.0285 17 24.4375 17C25.8465 17 27.1977 16.4403 28.194 15.444C29.1903 14.4477 29.75 13.0965 29.75 11.6875C29.75 11.5225 29.7117 11.3598 29.6379 11.2122L25.3879 2.71224C25.2735 2.48344 25.0804 2.30359 24.8441 2.20573C24.6077 2.10786 24.344 2.09855 24.1013 2.17951L17.3749 4.42138C17.0023 3.94766 16.5043 3.58794 15.9375 3.38311V0H13.8125V3.38311C13.203 3.59866 12.6737 3.99474 12.2949 4.51861C11.9161 5.04248 11.7059 5.66929 11.6922 6.31561L4.97633 8.55429C4.70905 8.64341 4.48811 8.83504 4.36209 9.08703L0.112094 17.587C0.0383077 17.7347 -7.1178e-05 17.8975 9.91e-08 18.0625C9.91e-08 19.4715 0.559708 20.8227 1.556 21.819C2.55228 22.8153 3.90354 23.375 5.3125 23.375C6.72146 23.375 8.07272 22.8153 9.06901 21.819C10.0653 20.8227 10.625 19.4715 10.625 18.0625C10.625 17.8975 10.5867 17.7348 10.5129 17.5872L6.81063 10.183L12.3749 8.3283C12.7474 8.80213 13.2455 9.16181 13.8125 9.36636V27.625H4.25V29.75H25.5V27.625H15.9375V9.36689C16.5469 9.15131 17.0763 8.75523 17.4551 8.23136C17.8338 7.7075 18.0441 7.0807 18.0578 6.43439L22.3397 5.00661L19.2372 11.2125C19.1634 11.36 19.125 11.5226 19.125 11.6875ZM5.3125 21.25C4.65558 21.2478 4.01544 21.0423 3.47991 20.6619C2.94437 20.2814 2.53968 19.7446 2.32135 19.125H8.30323C8.08492 19.7445 7.68029 20.2813 7.14484 20.6618C6.60939 21.0422 5.96935 21.2477 5.3125 21.25ZM7.84348 17H2.78152L5.3125 11.9386L7.84348 17ZM14.875 7.4375C14.6649 7.4375 14.4594 7.37519 14.2847 7.25844C14.11 7.14169 13.9738 6.97575 13.8934 6.7816C13.813 6.58745 13.7919 6.37382 13.8329 6.16772C13.8739 5.96161 13.9751 5.77229 14.1237 5.6237C14.2723 5.47511 14.4616 5.37391 14.6677 5.33292C14.8738 5.29192 15.0875 5.31296 15.2816 5.39338C15.4757 5.4738 15.6417 5.60998 15.7584 5.78471C15.8752 5.95943 15.9375 6.16486 15.9375 6.375C15.9372 6.65671 15.8252 6.92682 15.626 7.12602C15.4268 7.32522 15.1567 7.43725 14.875 7.4375ZM24.4375 14.875C23.7806 14.8727 23.1405 14.6673 22.6049 14.2868C22.0694 13.9064 21.6647 13.3696 21.4464 12.75H27.4282C27.2099 13.3695 26.8053 13.9063 26.2698 14.2868C25.7344 14.6672 25.0943 14.8727 24.4375 14.875ZM24.4375 5.56357L26.9685 10.625H21.9065L24.4375 5.56357Z" fill="black"/>
</svg>
